# xmcd CD database file
#
# Track frame offsets:
#	150
#	16648
#	36900
#
# Disc length: 757 seconds
#
# Revision: 0
# Processed by: cddbd v1.5PL3 Copyright (c) Steve Scherf et al.
# Submitted via: CDex 1.51
#
DISCID=1602f303
DTITLE=POR - soup☆砂あらし☆ホロスコープ
DYEAR=2002
DGENRE=Vocal
TTITLE0=soup
TTITLE1=砂あらし
TTITLE2=ホロスコープ
EXTD=YEAR: 2002
EXTT0=
EXTT1=
EXTT2=
PLAYORDER=
